<svg id="visual" viewBox="0 0 900 600" width="900" height="600" xmlns="http://www.w3.org/2000/svg" xmlns:xlink="http://www.w3.org/1999/xlink" version="1.1"><g stroke-width="1" stroke-linejoin="bevel"><path d="M407 331L338 362L382 422Z" fill="#145b75" stroke="#145b75"></path><path d="M308 468L417 481L382 422Z" fill="#1e6383" stroke="#1e6383"></path><path d="M382 422L494 409L407 331Z" fill="#093941" stroke="#093941"></path><path d="M417 481L494 409L382 422Z" fill="#0a4a5a" stroke="#0a4a5a"></path><path d="M338 362L308 468L382 422Z" fill="#1e6383" stroke="#1e6383"></path><path d="M494 409L507 315L407 331Z" fill="#0a3135" stroke="#0a3135"></path><path d="M507 315L417 238L407 331Z" fill="#071918" stroke="#071918"></path><path d="M311 212L262 303L338 362Z" fill="#00100e" stroke="#00100e"></path><path d="M311 212L338 362L407 331Z" fill="#0a3135" stroke="#0a3135"></path><path d="M338 362L179 383L308 468Z" fill="#0d5267" stroke="#0d5267"></path><path d="M417 238L311 212L407 331Z" fill="#093941" stroke="#093941"></path><path d="M169 273L179 383L262 303Z" fill="#0a4a5a" stroke="#0a4a5a"></path><path d="M262 303L179 383L338 362Z" fill="#00100e" stroke="#00100e"></path><path d="M417 481L536 519L494 409Z" fill="#09414d" stroke="#09414d"></path><path d="M613 411L582 279L507 315Z" fill="#0a4a5a" stroke="#0a4a5a"></path><path d="M471 600L536 519L417 481Z" fill="#0a2021" stroke="#0a2021"></path><path d="M613 411L507 315L494 409Z" fill="#09414d" stroke="#09414d"></path><path d="M507 315L514 164L417 238Z" fill="#0d5267" stroke="#0d5267"></path><path d="M305 600L417 481L308 468Z" fill="#0a2021" stroke="#0a2021"></path><path d="M305 600L415 600L417 481Z" fill="#00100e" stroke="#00100e"></path><path d="M179 383L187 492L308 468Z" fill="#0a282b" stroke="#0a282b"></path><path d="M536 519L613 411L494 409Z" fill="#0a3135" stroke="#0a3135"></path><path d="M514 164L407 137L417 238Z" fill="#0a4a5a" stroke="#0a4a5a"></path><path d="M417 238L407 137L311 212Z" fill="#0a2021" stroke="#0a2021"></path><path d="M179 166L169 273L311 212Z" fill="#0a2021" stroke="#0a2021"></path><path d="M311 212L169 273L262 303Z" fill="#0a282b" stroke="#0a282b"></path><path d="M179 383L135 407L187 492Z" fill="#071918" stroke="#071918"></path><path d="M187 492L305 600L308 468Z" fill="#0a4a5a" stroke="#0a4a5a"></path><path d="M415 600L471 600L417 481Z" fill="#145b75" stroke="#145b75"></path><path d="M582 279L514 164L507 315Z" fill="#145b75" stroke="#145b75"></path><path d="M101 268L135 407L179 383Z" fill="#093941" stroke="#093941"></path><path d="M565 600L621 473L536 519Z" fill="#0a282b" stroke="#0a282b"></path><path d="M536 519L621 473L613 411Z" fill="#0a3135" stroke="#0a3135"></path><path d="M585 99L512 121L514 164Z" fill="#145b75" stroke="#145b75"></path><path d="M514 164L512 121L407 137Z" fill="#071918" stroke="#071918"></path><path d="M424 0L312 98L407 137Z" fill="#0a4a5a" stroke="#0a4a5a"></path><path d="M407 137L312 98L311 212Z" fill="#0a2021" stroke="#0a2021"></path><path d="M471 600L565 600L536 519Z" fill="#0a3135" stroke="#0a3135"></path><path d="M582 279L627 212L514 164Z" fill="#0a4a5a" stroke="#0a4a5a"></path><path d="M674 260L627 212L582 279Z" fill="#1e6383" stroke="#1e6383"></path><path d="M674 260L582 279L613 411Z" fill="#145b75" stroke="#145b75"></path><path d="M312 98L179 166L311 212Z" fill="#09414d" stroke="#09414d"></path><path d="M169 273L101 268L179 383Z" fill="#0a2021" stroke="#0a2021"></path><path d="M179 166L101 268L169 273Z" fill="#0a3135" stroke="#0a3135"></path><path d="M700 425L674 260L613 411Z" fill="#0a4a5a" stroke="#0a4a5a"></path><path d="M0 411L93 486L135 407Z" fill="#0a2021" stroke="#0a2021"></path><path d="M135 407L93 486L187 492Z" fill="#071918" stroke="#071918"></path><path d="M187 492L160 600L305 600Z" fill="#145b75" stroke="#145b75"></path><path d="M93 486L160 600L187 492Z" fill="#09414d" stroke="#09414d"></path><path d="M734 503L700 425L621 473Z" fill="#093941" stroke="#093941"></path><path d="M621 473L700 425L613 411Z" fill="#0a2021" stroke="#0a2021"></path><path d="M838 199L670 189L674 260Z" fill="#0d5267" stroke="#0d5267"></path><path d="M674 260L670 189L627 212Z" fill="#093941" stroke="#093941"></path><path d="M627 212L585 99L514 164Z" fill="#071918" stroke="#071918"></path><path d="M670 189L585 99L627 212Z" fill="#0d5267" stroke="#0d5267"></path><path d="M460 0L424 0L407 137Z" fill="#093941" stroke="#093941"></path><path d="M312 98L235 66L179 166Z" fill="#0a2021" stroke="#0a2021"></path><path d="M179 166L66 182L101 268Z" fill="#0d5267" stroke="#0d5267"></path><path d="M331 0L235 66L312 98Z" fill="#093941" stroke="#093941"></path><path d="M93 486L108 600L160 600Z" fill="#09414d" stroke="#09414d"></path><path d="M565 600L672 600L621 473Z" fill="#145b75" stroke="#145b75"></path><path d="M125 103L66 182L179 166Z" fill="#1e6383" stroke="#1e6383"></path><path d="M101 268L0 411L135 407Z" fill="#0a2021" stroke="#0a2021"></path><path d="M672 600L734 503L621 473Z" fill="#0d5267" stroke="#0d5267"></path><path d="M700 425L792 302L674 260Z" fill="#0a4a5a" stroke="#0a4a5a"></path><path d="M235 66L125 103L179 166Z" fill="#0a3135" stroke="#0a3135"></path><path d="M460 0L407 137L512 121Z" fill="#0a2021" stroke="#0a2021"></path><path d="M235 66L134 0L125 103Z" fill="#071918" stroke="#071918"></path><path d="M424 0L331 0L312 98Z" fill="#0a282b" stroke="#0a282b"></path><path d="M585 99L460 0L512 121Z" fill="#0a282b" stroke="#0a282b"></path><path d="M0 276L0 411L101 268Z" fill="#071918" stroke="#071918"></path><path d="M93 486L0 600L108 600Z" fill="#0a3135" stroke="#0a3135"></path><path d="M0 233L0 276L101 268Z" fill="#0a3135" stroke="#0a3135"></path><path d="M0 411L0 477L93 486Z" fill="#09414d" stroke="#09414d"></path><path d="M734 503L789 409L700 425Z" fill="#00100e" stroke="#00100e"></path><path d="M672 600L770 509L734 503Z" fill="#093941" stroke="#093941"></path><path d="M734 503L770 509L789 409Z" fill="#1e6383" stroke="#1e6383"></path><path d="M331 0L220 0L235 66Z" fill="#0a2021" stroke="#0a2021"></path><path d="M0 90L0 233L66 182Z" fill="#0a282b" stroke="#0a282b"></path><path d="M66 182L0 233L101 268Z" fill="#0a3135" stroke="#0a3135"></path><path d="M0 90L66 182L125 103Z" fill="#00100e" stroke="#00100e"></path><path d="M789 409L792 302L700 425Z" fill="#093941" stroke="#093941"></path><path d="M670 189L737 107L585 99Z" fill="#09414d" stroke="#09414d"></path><path d="M782 116L737 107L670 189Z" fill="#0d5267" stroke="#0d5267"></path><path d="M585 99L634 0L460 0Z" fill="#0a282b" stroke="#0a282b"></path><path d="M0 477L0 600L93 486Z" fill="#09414d" stroke="#09414d"></path><path d="M674 0L634 0L585 99Z" fill="#00100e" stroke="#00100e"></path><path d="M220 0L134 0L235 66Z" fill="#071918" stroke="#071918"></path><path d="M737 107L674 0L585 99Z" fill="#145b75" stroke="#145b75"></path><path d="M838 199L782 116L670 189Z" fill="#09414d" stroke="#09414d"></path><path d="M737 107L826 0L674 0Z" fill="#00100e" stroke="#00100e"></path><path d="M134 0L0 90L125 103Z" fill="#071918" stroke="#071918"></path><path d="M792 302L838 199L674 260Z" fill="#145b75" stroke="#145b75"></path><path d="M900 283L838 199L792 302Z" fill="#0a2021" stroke="#0a2021"></path><path d="M900 384L792 302L789 409Z" fill="#0a282b" stroke="#0a282b"></path><path d="M672 600L823 600L770 509Z" fill="#0a2021" stroke="#0a2021"></path><path d="M900 492L900 384L789 409Z" fill="#09414d" stroke="#09414d"></path><path d="M900 492L789 409L770 509Z" fill="#0a4a5a" stroke="#0a4a5a"></path><path d="M900 384L900 283L792 302Z" fill="#071918" stroke="#071918"></path><path d="M838 199L900 160L782 116Z" fill="#093941" stroke="#093941"></path><path d="M823 600L900 492L770 509Z" fill="#0a2021" stroke="#0a2021"></path><path d="M134 0L0 0L0 90Z" fill="#0a282b" stroke="#0a282b"></path><path d="M900 283L900 160L838 199Z" fill="#00100e" stroke="#00100e"></path><path d="M782 116L826 0L737 107Z" fill="#0a4a5a" stroke="#0a4a5a"></path><path d="M823 600L900 600L900 492Z" fill="#071918" stroke="#071918"></path><path d="M900 110L826 0L782 116Z" fill="#09414d" stroke="#09414d"></path><path d="M900 160L900 110L782 116Z" fill="#145b75" stroke="#145b75"></path><path d="M900 110L900 0L826 0Z" fill="#0a2021" stroke="#0a2021"></path></g></svg>